<mxfile host="app.diagrams.net" modified="2021-03-04T07:57:15.194Z" agent="5.0 (Macintosh; Intel Mac OS X 10_15_7) AppleWebKit/537.36 (KHTML, like Gecko) Chrome/88.0.4324.192 Safari/537.36" etag="bMSiZ-7Tap6HQRqlunG4" version="14.4.4" type="github">
  <diagram id="PRZ0yyFNyk9wogDtQVtM" name="Page-1">
    <mxGraphModel dx="946" dy="591" grid="1" gridSize="10" guides="1" tooltips="1" connect="1" arrows="1" fold="1" page="1" pageScale="1" pageWidth="827" pageHeight="1169" math="0" shadow="0">
      <root>
        <mxCell id="0" />
        <mxCell id="1" parent="0" />
        <mxCell id="8OcyjCi5qKGm8a9IeFEw-44" value="&lt;font color=&quot;#808080&quot;&gt;&amp;nbsp; 1、查询当前积分余额(事业部自查即可)&lt;br&gt;&amp;nbsp; 2、计算当前积分余额可兑换未来币数(兑换比率有产品确定）&lt;br&gt;&lt;/font&gt;&lt;br&gt;&lt;br&gt;&lt;br&gt;&lt;br&gt;&lt;br&gt;&lt;br&gt;&lt;br&gt;&lt;br&gt;&lt;br&gt;&lt;br&gt;&lt;br&gt;&lt;br&gt;" style="rounded=0;whiteSpace=wrap;html=1;dashed=1;align=left;" parent="1" vertex="1">
          <mxGeometry x="486" y="360" width="369" height="230" as="geometry" />
        </mxCell>
        <mxCell id="exV3qp2oxIIoNM2a9tSQ-1" value="用户" style="shape=umlActor;verticalLabelPosition=bottom;verticalAlign=top;html=1;outlineConnect=0;gradientColor=#97d077;fillColor=#d5e8d4;strokeColor=#82b366;" parent="1" vertex="1">
          <mxGeometry x="105" y="80" width="30" height="60" as="geometry" />
        </mxCell>
        <mxCell id="8OcyjCi5qKGm8a9IeFEw-4" value="&lt;b&gt;积分商城&lt;br&gt;（业务事业部）&lt;/b&gt;" style="rounded=0;whiteSpace=wrap;html=1;strokeWidth=2;fillColor=#cce5ff;strokeColor=#36393d;" parent="1" vertex="1">
          <mxGeometry x="411" y="90" width="150" height="50" as="geometry" />
        </mxCell>
        <mxCell id="8OcyjCi5qKGm8a9IeFEw-5" value="&lt;b&gt;未来币商城&lt;br&gt;（集团中台）&lt;/b&gt;" style="rounded=0;whiteSpace=wrap;html=1;strokeWidth=2;strokeColor=#BD7000;fillColor=#f0a30a;fontColor=#ffffff;" parent="1" vertex="1">
          <mxGeometry x="810" y="90" width="135" height="50" as="geometry" />
        </mxCell>
        <mxCell id="8OcyjCi5qKGm8a9IeFEw-10" value="" style="endArrow=none;html=1;" parent="1" edge="1">
          <mxGeometry width="50" height="50" relative="1" as="geometry">
            <mxPoint x="1370" y="69" as="sourcePoint" />
            <mxPoint y="69" as="targetPoint" />
          </mxGeometry>
        </mxCell>
        <mxCell id="8OcyjCi5qKGm8a9IeFEw-11" value="&lt;b&gt;用户在事业部完成商品购买&lt;/b&gt;" style="text;html=1;strokeColor=none;fillColor=none;align=center;verticalAlign=middle;whiteSpace=wrap;rounded=0;" parent="1" vertex="1">
          <mxGeometry x="440" y="40" width="190" height="30" as="geometry" />
        </mxCell>
        <mxCell id="8OcyjCi5qKGm8a9IeFEw-12" value="" style="endArrow=none;dashed=1;html=1;" parent="1" edge="1">
          <mxGeometry width="50" height="50" relative="1" as="geometry">
            <mxPoint x="66" y="230" as="sourcePoint" />
            <mxPoint x="66" y="230.0000000000001" as="targetPoint" />
          </mxGeometry>
        </mxCell>
        <mxCell id="8OcyjCi5qKGm8a9IeFEw-19" value="" style="endArrow=classic;html=1;" parent="1" edge="1">
          <mxGeometry width="50" height="50" relative="1" as="geometry">
            <mxPoint x="120" y="160" as="sourcePoint" />
            <mxPoint x="120" y="1280" as="targetPoint" />
          </mxGeometry>
        </mxCell>
        <mxCell id="8OcyjCi5qKGm8a9IeFEw-20" value="" style="endArrow=classic;html=1;exitX=0.5;exitY=1;exitDx=0;exitDy=0;" parent="1" source="8OcyjCi5qKGm8a9IeFEw-4" edge="1">
          <mxGeometry width="50" height="50" relative="1" as="geometry">
            <mxPoint x="486" y="150" as="sourcePoint" />
            <mxPoint x="486" y="1280" as="targetPoint" />
          </mxGeometry>
        </mxCell>
        <mxCell id="8OcyjCi5qKGm8a9IeFEw-21" value="" style="endArrow=classic;html=1;" parent="1" edge="1">
          <mxGeometry width="50" height="50" relative="1" as="geometry">
            <mxPoint x="120" y="200" as="sourcePoint" />
            <mxPoint x="486" y="200" as="targetPoint" />
          </mxGeometry>
        </mxCell>
        <mxCell id="8OcyjCi5qKGm8a9IeFEw-22" value="用户查看商品" style="edgeLabel;html=1;align=center;verticalAlign=middle;resizable=0;points=[];" parent="8OcyjCi5qKGm8a9IeFEw-21" vertex="1" connectable="0">
          <mxGeometry x="-0.2312" y="3" relative="1" as="geometry">
            <mxPoint x="27" as="offset" />
          </mxGeometry>
        </mxCell>
        <mxCell id="8OcyjCi5qKGm8a9IeFEw-23" value="" style="endArrow=classic;html=1;exitX=0.5;exitY=1;exitDx=0;exitDy=0;" parent="1" source="8OcyjCi5qKGm8a9IeFEw-5" edge="1">
          <mxGeometry width="50" height="50" relative="1" as="geometry">
            <mxPoint x="880" y="160" as="sourcePoint" />
            <mxPoint x="881" y="1280" as="targetPoint" />
          </mxGeometry>
        </mxCell>
        <mxCell id="8OcyjCi5qKGm8a9IeFEw-24" value="" style="endArrow=classic;html=1;" parent="1" edge="1">
          <mxGeometry width="50" height="50" relative="1" as="geometry">
            <mxPoint x="486" y="220" as="sourcePoint" />
            <mxPoint x="880" y="220" as="targetPoint" />
          </mxGeometry>
        </mxCell>
        <mxCell id="8OcyjCi5qKGm8a9IeFEw-25" value="获取当前积分总数" style="edgeLabel;html=1;align=center;verticalAlign=middle;resizable=0;points=[];" parent="8OcyjCi5qKGm8a9IeFEw-24" vertex="1" connectable="0">
          <mxGeometry x="-0.0375" y="-2" relative="1" as="geometry">
            <mxPoint as="offset" />
          </mxGeometry>
        </mxCell>
        <mxCell id="8OcyjCi5qKGm8a9IeFEw-28" value="商品所需未来币 &amp;lt;= 用户未来币余额&lt;br&gt;&lt;br&gt;&lt;b&gt;直接引导用户购买商品即可&lt;/b&gt;" style="rounded=0;whiteSpace=wrap;html=1;align=left;fillColor=#d5e8d4;strokeColor=#82b366;" parent="1" vertex="1">
          <mxGeometry x="487" y="294" width="369" height="56" as="geometry" />
        </mxCell>
        <mxCell id="8OcyjCi5qKGm8a9IeFEw-30" value="" style="endArrow=classic;html=1;" parent="1" edge="1">
          <mxGeometry width="50" height="50" relative="1" as="geometry">
            <mxPoint x="120" y="680" as="sourcePoint" />
            <mxPoint x="483" y="680" as="targetPoint" />
          </mxGeometry>
        </mxCell>
        <mxCell id="8OcyjCi5qKGm8a9IeFEw-31" value="用户购买商品提交订单" style="edgeLabel;html=1;align=center;verticalAlign=middle;resizable=0;points=[];" parent="8OcyjCi5qKGm8a9IeFEw-30" vertex="1" connectable="0">
          <mxGeometry x="-0.2312" y="3" relative="1" as="geometry">
            <mxPoint x="27" as="offset" />
          </mxGeometry>
        </mxCell>
        <mxCell id="8OcyjCi5qKGm8a9IeFEw-32" value="" style="endArrow=classic;html=1;dashed=1;" parent="1" edge="1">
          <mxGeometry width="50" height="50" relative="1" as="geometry">
            <mxPoint x="880" y="270" as="sourcePoint" />
            <mxPoint x="488" y="270" as="targetPoint" />
          </mxGeometry>
        </mxCell>
        <mxCell id="8OcyjCi5qKGm8a9IeFEw-33" value="用户当前未来币余额" style="edgeLabel;html=1;align=center;verticalAlign=middle;resizable=0;points=[];" parent="8OcyjCi5qKGm8a9IeFEw-32" vertex="1" connectable="0">
          <mxGeometry x="0.116" y="-3" relative="1" as="geometry">
            <mxPoint as="offset" />
          </mxGeometry>
        </mxCell>
        <mxCell id="8OcyjCi5qKGm8a9IeFEw-35" value="注&lt;br&gt;未来币余额接口：(用户未来币账号总余额)&lt;br&gt;接口地址：https://wiki.zhiyinlou.com/pages/viewpage.action?pageId=109642743&lt;span style=&quot;color: rgba(0 , 0 , 0 , 0) ; font-family: monospace ; font-size: 0px&quot;&gt;%3CmxGraphModel%3E%3Croot%3E%3CmxCell%20id%3D%220%22%2F%3E%3CmxCell%20id%3D%221%22%20parent%3D%220%22%2F%3E%3CmxCell%20id%3D%222%22%20value%3D%22%26lt%3Bh1%26gt%3B%26lt%3Bspan%20style%3D%26quot%3Bfont-size%3A%2012px%20%3B%20font-weight%3A%20400%26quot%3B%26gt%3B%E7%94%A8%E6%88%B7%E4%BD%99%E9%A2%9D%E6%98%AF%E5%90%A6%E5%8F%AF%E8%B4%AD%E4%B9%B0%26lt%3B%2Fspan%26gt%3B%26lt%3B%2Fh1%26gt%3B%26lt%3Bdiv%26gt%3B%26lt%3Bspan%20style%3D%26quot%3Bfont-size%3A%2012px%20%3B%20font-weight%3A%20400%26quot%3B%26gt%3B%E4%BD%99%E9%A2%9D%3D%E7%94%A8%E6%88%B7%E6%9C%AA%E6%9D%A5%E5%B8%81%2B%E5%8F%AF%E5%85%91%E6%8D%A2%E6%9C%AA%E6%9D%A5%E5%B8%81(%E4%BA%8B%E4%B8%9A%E9%83%A8%E7%A7%AF%E5%88%86*%E6%9C%AA%E6%9D%A5%E5%B8%81%E6%B1%87%E7%8E%87)%26lt%3B%2Fspan%26gt%3B%26lt%3B%2Fdiv%26gt%3B%22%20style%3D%22text%3Bhtml%3D1%3BstrokeColor%3Dnone%3BfillColor%3Dnone%3Bspacing%3D5%3BspacingTop%3D-20%3BwhiteSpace%3Dwrap%3Boverflow%3Dhidden%3Brounded%3D0%3B%22%20vertex%3D%221%22%20parent%3D%221%22%3E%3CmxGeometry%20x%3D%22490%22%20y%3D%22230%22%20width%3D%22370%22%20height%3D%2290%22%20as%3D%22geometry%22%2F%3E%3C%2FmxCell%3E%3C%2Froot%3E%3C%2FmxGraphModel%3E&lt;/span&gt;&lt;br&gt;&lt;span style=&quot;color: rgba(0 , 0 , 0 , 0) ; font-family: monospace ; font-size: 0px&quot;&gt;%3CmxGraphModel%3E%3Croot%3E%3CmxCell%20id%3D%220%22%2F%3E%3CmxCell%20id%3D%221%22%20parent%3D%220%22%2F%3E%3CmxCell%20id%3D%222%22%20value%3D%22%26lt%3Bh1%26gt%3B%26lt%3Bspan%20style%3D%26quot%3Bfont-size%3A%2012px%20%3B%20font-weight%3A%20400%26quot%3B%26gt%3B%E7%94%A8%E6%88%B7%E4%BD%99%E9%A2%9D%E6%98%AF%E5%90%A6%E5%8F%AF%E8%B4%AD%E4%B9%B0%26lt%3B%2Fspan%26gt%3B%26lt%3B%2Fh1%26gt%3B%26lt%3Bdiv%26gt%3B%26lt%3Bspan%20style%3D%26quot%3Bfont-size%3A%2012px%20%3B%20font-weight%3A%20400%26quot%3B%26gt%3B%E4%BD%99%E9%A2%9D%3D%E7%94%A8%E6%88%B7%E6%9C%AA%E6%9D%A5%E5%B8%81%2B%E5%8F%AF%E5%85%91%E6%8D%A2%E6%9C%AA%E6%9D%A5%E5%B8%81(%E4%BA%8B%E4%B8%9A%E9%83%A8%E7%A7%AF%E5%88%86*%E6%9C%AA%E6%9D%A5%E5%B8%81%E6%B1%87%E7%8E%87)%26lt%3B%2Fspan%26gt%3B%26lt%3B%2Fdiv%26gt%3B%22%20style%3D%22text%3Bhtml%3D1%3BstrokeColor%3Dnone%3BfillColor%3Dnone%3Bspacing%3D5%3BspacingTop%3D-20%3BwhiteSpace%3Dwrap%3Boverflow%3Dhidden%3Brounded%3D0%3B%22%20vertex%3D%221%22%20parent%3D%221%22%3E%3CmxGeometry%20x%3D%22490%22%20y%3D%22230%22%20width%3D%22370%22%20height%3D%2290%22%20as%3D%22geometry%22%2F%3E%3C%2FmxCell%3E%3C%2Froot%3E%3C%2FmxGraphModel%3E&lt;/span&gt;" style="rounded=0;whiteSpace=wrap;html=1;align=left;fillColor=#f5f5f5;strokeColor=#666666;fontColor=#333333;" parent="1" vertex="1">
          <mxGeometry x="880" y="210" width="470" height="60" as="geometry" />
        </mxCell>
        <mxCell id="8OcyjCi5qKGm8a9IeFEw-36" value="商品所需未来币 &amp;gt; 用户未来币余额&lt;br&gt;&lt;br&gt;商品所需未来币 &amp;gt; 用户未来币余额+ 可兑换未来币(积分*兑换比率)&lt;br&gt;&lt;br&gt;&lt;b&gt;&lt;font color=&quot;#ff3333&quot;&gt;用户当前无法购买商品&amp;nbsp;&lt;/font&gt;&lt;/b&gt;" style="rounded=0;whiteSpace=wrap;html=1;align=left;fillColor=#f8cecc;strokeColor=#b85450;" parent="1" vertex="1">
          <mxGeometry x="486" y="505" width="365" height="70" as="geometry" />
        </mxCell>
        <mxCell id="8OcyjCi5qKGm8a9IeFEw-37" value="商品所需未来币 &amp;gt; 用户未来币余额&lt;br&gt;&lt;br&gt;商品所需未来币 &amp;lt;= 用户未来币余额+ 可兑换未来币(积分*兑换比率)&amp;nbsp;&lt;br&gt;&lt;br&gt;&lt;b&gt;&lt;font color=&quot;#999900&quot;&gt;引导用户兑换未来币和后买商品即可&lt;/font&gt;&lt;/b&gt;" style="rounded=0;whiteSpace=wrap;html=1;align=left;fillColor=#fff2cc;strokeColor=#d6b656;" parent="1" vertex="1">
          <mxGeometry x="486" y="415" width="365" height="70" as="geometry" />
        </mxCell>
        <mxCell id="8OcyjCi5qKGm8a9IeFEw-38" value="" style="endArrow=classic;html=1;dashed=1;" parent="1" edge="1">
          <mxGeometry width="50" height="50" relative="1" as="geometry">
            <mxPoint x="486" y="320" as="sourcePoint" />
            <mxPoint x="120" y="320" as="targetPoint" />
          </mxGeometry>
        </mxCell>
        <mxCell id="8OcyjCi5qKGm8a9IeFEw-41" value="引导用户使用未来币购买" style="edgeLabel;html=1;align=center;verticalAlign=middle;resizable=0;points=[];" parent="8OcyjCi5qKGm8a9IeFEw-38" vertex="1" connectable="0">
          <mxGeometry x="0.0438" y="1" relative="1" as="geometry">
            <mxPoint as="offset" />
          </mxGeometry>
        </mxCell>
        <mxCell id="8OcyjCi5qKGm8a9IeFEw-39" value="" style="endArrow=classic;html=1;dashed=1;" parent="1" edge="1">
          <mxGeometry width="50" height="50" relative="1" as="geometry">
            <mxPoint x="486" y="440" as="sourcePoint" />
            <mxPoint x="120" y="440" as="targetPoint" />
          </mxGeometry>
        </mxCell>
        <mxCell id="8OcyjCi5qKGm8a9IeFEw-40" value="" style="endArrow=classic;html=1;exitX=0;exitY=0.5;exitDx=0;exitDy=0;dashed=1;" parent="1" source="8OcyjCi5qKGm8a9IeFEw-36" edge="1">
          <mxGeometry width="50" height="50" relative="1" as="geometry">
            <mxPoint x="476" y="539" as="sourcePoint" />
            <mxPoint x="120" y="539" as="targetPoint" />
          </mxGeometry>
        </mxCell>
        <mxCell id="8OcyjCi5qKGm8a9IeFEw-42" value="引导用户积分兑换未来币后购买" style="edgeLabel;html=1;align=center;verticalAlign=middle;resizable=0;points=[];" parent="1" vertex="1" connectable="0">
          <mxGeometry x="300" y="445" as="geometry">
            <mxPoint x="1" y="-6" as="offset" />
          </mxGeometry>
        </mxCell>
        <mxCell id="8OcyjCi5qKGm8a9IeFEw-43" value="用户余额不足不能购买" style="edgeLabel;html=1;align=center;verticalAlign=middle;resizable=0;points=[];" parent="1" vertex="1" connectable="0">
          <mxGeometry x="300" y="540" as="geometry" />
        </mxCell>
        <mxCell id="8OcyjCi5qKGm8a9IeFEw-47" value="商品所需未来币 &amp;lt;= 用户未来币余额&amp;nbsp;&lt;br&gt;&lt;br&gt;1、生成业务自己的订单（业务自己完成）&lt;br&gt;2、未来币商城下单（调用未来币平台下单接口）&lt;br&gt;3、事业部其他逻辑&lt;br&gt;注：如需要退单，则调用未来币平台退单接口" style="rounded=0;whiteSpace=wrap;html=1;align=left;fillColor=#d5e8d4;strokeColor=#82b366;" parent="1" vertex="1">
          <mxGeometry x="486" y="640" width="354" height="100" as="geometry" />
        </mxCell>
        <mxCell id="8OcyjCi5qKGm8a9IeFEw-48" value="&lt;font color=&quot;#808080&quot;&gt;&amp;nbsp; 1、查询当前积分余额(事业部自查即可)&lt;br&gt;&amp;nbsp; 2、计算当前积分余额可兑换未来币数(兑换比率有产品确定）&lt;/font&gt;&lt;br&gt;&lt;br&gt;&lt;br&gt;&lt;br&gt;&lt;br&gt;&lt;br&gt;&lt;br&gt;&lt;br&gt;&lt;br&gt;&lt;br&gt;" style="rounded=0;whiteSpace=wrap;html=1;dashed=1;align=left;" parent="1" vertex="1">
          <mxGeometry x="486" y="870" width="364" height="200" as="geometry" />
        </mxCell>
        <mxCell id="8OcyjCi5qKGm8a9IeFEw-50" value="商品所需未来币 &amp;gt; 用户未来币余额&lt;br&gt;&lt;br&gt;商品所需未来币 &amp;lt;= 用户未来币余额+ 可兑换未来币(积分*兑换比率)&amp;nbsp;&lt;br&gt;&lt;br&gt;1、将事业部部分积分兑换成未来币&lt;br&gt;2、生成业务自己的订单（业务自己完成）&lt;br&gt;3、未来币商城下单（调用未来币平台下单接口）&lt;br&gt;4、事业部其他逻辑&lt;br&gt;注：如需要退单，则调用未来币平台退单，未来币扣除、事&lt;br&gt;业部积分增减等" style="rounded=0;whiteSpace=wrap;html=1;align=left;fillColor=#fff2cc;strokeColor=#d6b656;" parent="1" vertex="1">
          <mxGeometry x="486" y="925" width="364" height="145" as="geometry" />
        </mxCell>
        <mxCell id="8OcyjCi5qKGm8a9IeFEw-52" value="" style="endArrow=classic;html=1;" parent="1" edge="1">
          <mxGeometry width="50" height="50" relative="1" as="geometry">
            <mxPoint x="490" y="760" as="sourcePoint" />
            <mxPoint x="880" y="760" as="targetPoint" />
          </mxGeometry>
        </mxCell>
        <mxCell id="8OcyjCi5qKGm8a9IeFEw-53" value="商品兑换下单" style="text;html=1;align=center;verticalAlign=middle;resizable=0;points=[];autosize=1;" parent="1" vertex="1">
          <mxGeometry x="625" y="740" width="90" height="20" as="geometry" />
        </mxCell>
        <mxCell id="8OcyjCi5qKGm8a9IeFEw-54" value="&lt;span&gt;生成订单 （生成未来币平台订单信息，扣除对应商品未来币）&lt;/span&gt;&lt;br&gt;&lt;div&gt;&lt;br&gt;&lt;/div&gt;&lt;div&gt;注：&lt;br&gt;&lt;/div&gt;1、商品下单接口（该接口将自动返回未来币数）&lt;br&gt;接口地址：https://wiki.zhiyinlou.com/pages/viewpage.action?pageId=109647040&lt;br&gt;2、订单退单接口： (该接口将自动返回未来币数)&lt;br&gt;接口地址：https://wiki.zhiyinlou.com/pages/viewpage.action?pageId=110699834" style="rounded=0;whiteSpace=wrap;html=1;align=left;fillColor=#f5f5f5;strokeColor=#666666;fontColor=#333333;" parent="1" vertex="1">
          <mxGeometry x="880" y="720" width="470" height="120" as="geometry" />
        </mxCell>
        <mxCell id="8OcyjCi5qKGm8a9IeFEw-55" value="下单完成" style="endArrow=classic;html=1;dashed=1;" parent="1" edge="1">
          <mxGeometry width="50" height="50" relative="1" as="geometry">
            <mxPoint x="876" y="780" as="sourcePoint" />
            <mxPoint x="486" y="780" as="targetPoint" />
          </mxGeometry>
        </mxCell>
        <mxCell id="8OcyjCi5qKGm8a9IeFEw-56" value="" style="endArrow=classic;html=1;" parent="1" edge="1">
          <mxGeometry width="50" height="50" relative="1" as="geometry">
            <mxPoint x="118.5" y="959.5" as="sourcePoint" />
            <mxPoint x="481.5" y="959.5" as="targetPoint" />
          </mxGeometry>
        </mxCell>
        <mxCell id="8OcyjCi5qKGm8a9IeFEw-57" value="用户兑换且购买提交订单" style="edgeLabel;html=1;align=center;verticalAlign=middle;resizable=0;points=[];" parent="8OcyjCi5qKGm8a9IeFEw-56" vertex="1" connectable="0">
          <mxGeometry x="-0.2312" y="3" relative="1" as="geometry">
            <mxPoint x="27" as="offset" />
          </mxGeometry>
        </mxCell>
        <mxCell id="8OcyjCi5qKGm8a9IeFEw-59" value="" style="endArrow=classic;html=1;" parent="1" edge="1">
          <mxGeometry width="50" height="50" relative="1" as="geometry">
            <mxPoint x="491" y="1170" as="sourcePoint" />
            <mxPoint x="881" y="1170" as="targetPoint" />
          </mxGeometry>
        </mxCell>
        <mxCell id="8OcyjCi5qKGm8a9IeFEw-60" value="商品兑换下单" style="text;html=1;align=center;verticalAlign=middle;resizable=0;points=[];autosize=1;" parent="1" vertex="1">
          <mxGeometry x="626" y="1150" width="90" height="20" as="geometry" />
        </mxCell>
        <mxCell id="8OcyjCi5qKGm8a9IeFEw-61" value="下单完成" style="endArrow=classic;html=1;dashed=1;" parent="1" edge="1">
          <mxGeometry width="50" height="50" relative="1" as="geometry">
            <mxPoint x="877" y="1190" as="sourcePoint" />
            <mxPoint x="487" y="1190" as="targetPoint" />
          </mxGeometry>
        </mxCell>
        <mxCell id="8OcyjCi5qKGm8a9IeFEw-62" value="" style="endArrow=classic;html=1;" parent="1" edge="1">
          <mxGeometry width="50" height="50" relative="1" as="geometry">
            <mxPoint x="491" y="1110" as="sourcePoint" />
            <mxPoint x="881" y="1110" as="targetPoint" />
          </mxGeometry>
        </mxCell>
        <mxCell id="8OcyjCi5qKGm8a9IeFEw-63" value="积分兑换" style="text;html=1;align=center;verticalAlign=middle;resizable=0;points=[];autosize=1;" parent="1" vertex="1">
          <mxGeometry x="641" y="1090" width="60" height="20" as="geometry" />
        </mxCell>
        <mxCell id="8OcyjCi5qKGm8a9IeFEw-64" value="积分兑换完成" style="endArrow=classic;html=1;dashed=1;" parent="1" edge="1">
          <mxGeometry width="50" height="50" relative="1" as="geometry">
            <mxPoint x="877" y="1130" as="sourcePoint" />
            <mxPoint x="487" y="1130" as="targetPoint" />
          </mxGeometry>
        </mxCell>
        <mxCell id="8OcyjCi5qKGm8a9IeFEw-65" value="&lt;br&gt;&lt;div&gt;&lt;span&gt;&lt;br&gt;&lt;/span&gt;&lt;/div&gt;&lt;div&gt;&lt;span&gt;事业部积分兑换未来币（1、扣减对应事业部积分， 2、按照兑换比率增加未来币）&lt;/span&gt;&lt;/div&gt;&lt;div&gt;&lt;span&gt;生成订单 （生成未来币平台订单信息，&lt;/span&gt;&lt;span&gt;扣除对应商品未来币）&lt;/span&gt;&lt;/div&gt;&lt;div&gt;&lt;br&gt;&lt;/div&gt;&lt;div&gt;&lt;span&gt;注：&lt;/span&gt;&lt;/div&gt;&lt;div&gt;1、兑换未来币接口（1、扣除事业部积分， 2、按比例增加未来币）&lt;/div&gt;&lt;div&gt;接口地址：https://wiki.zhiyinlou.com/pages/viewpage.action?pageId=109647132&lt;/div&gt;2、商品下单接口（该接口将自动返回未来币数）&lt;br&gt;接口地址：https://wiki.zhiyinlou.com/pages/viewpage.action?pageId=109647040&lt;br&gt;3、订单退单接口： (该接口将自动返回未来币数)&lt;br&gt;接口地址：https://wiki.zhiyinlou.com/pages/viewpage.action?pageId=110699834&lt;br&gt;&lt;span style=&quot;color: rgba(0 , 0 , 0 , 0) ; font-family: monospace ; font-size: 0px&quot;&gt;%3CmxGraphModel%3E%3Croot%3E%3CmxCell%20id%3D%220%22%2F%3E%3CmxCell%20id%3D%221%22%20parent%3D%220%22%2F%3E%3CmxCell%20id%3D%222%22%20value%3D%22%26lt%3Bh1%26gt%3B%26lt%3Bspan%20style%3D%26quot%3Bfont-size%3A%2012px%20%3B%20font-weight%3A%20400%26quot%3B%26gt%3B%E7%94%A8%E6%88%B7%E4%BD%99%E9%A2%9D%E6%98%AF%E5%90%A6%E5%8F%AF%E8%B4%AD%E4%B9%B0%26lt%3B%2Fspan%26gt%3B%26lt%3B%2Fh1%26gt%3B%26lt%3Bdiv%26gt%3B%26lt%3Bspan%20style%3D%26quot%3Bfont-size%3A%2012px%20%3B%20font-weight%3A%20400%26quot%3B%26gt%3B%E4%BD%99%E9%A2%9D%3D%E7%94%A8%E6%88%B7%E6%9C%AA%E6%9D%A5%E5%B8%81%2B%E5%8F%AF%E5%85%91%E6%8D%A2%E6%9C%AA%E6%9D%A5%E5%B8%81(%E4%BA%8B%E4%B8%9A%E9%83%A8%E7%A7%AF%E5%88%86*%E6%9C%AA%E6%9D%A5%E5%B8%81%E6%B1%87%E7%8E%87)%26lt%3B%2Fspan%26gt%3B%26lt%3B%2Fdiv%26gt%3B%22%20style%3D%22text%3Bhtml%3D1%3BstrokeColor%3Dnone%3BfillColor%3Dnone%3Bspacing%3D5%3BspacingTop%3D-20%3BwhiteSpace%3Dwrap%3Boverflow%3Dhidden%3Brounded%3D0%3B%22%20vertex%3D%221%22%20parent%3D%221%22%3E%3CmxGeometry%20x%3D%22490%22%20y%3D%22230%22%20width%3D%22370%22%20height%3D%2290%22%20as%3D%22geometry%22%2F%3E%3C%2FmxCell%3E%3C%2Froot%3E%3C%2FmxGraphModel%3E&lt;/span&gt;&lt;br&gt;&lt;span style=&quot;color: rgba(0 , 0 , 0 , 0) ; font-family: monospace ; font-size: 0px&quot;&gt;%3CmxGraphModel%3E%3Croot%3E%3CmxCell%20id%3D%220%22%2F%3E%3CmxCell%20id%3D%221%22%20parent%3D%220%22%2F%3E%3CmxCell%20id%3D%222%22%20value%3D%22%26lt%3Bh1%26gt%3B%26lt%3Bspan%20style%3D%26quot%3Bfont-size%3A%2012px%20%3B%20font-weight%3A%20400%26quot%3B%26gt%3B%E7%94%A8%E6%88%B7%E4%BD%99%E9%A2%9D%E6%98%AF%E5%90%A6%E5%8F%AF%E8%B4%AD%E4%B9%B0%26lt%3B%2Fspan%26gt%3B%26lt%3B%2Fh1%26gt%3B%26lt%3Bdiv%26gt%3B%26lt%3Bspan%20style%3D%26quot%3Bfont-size%3A%2012px%20%3B%20font-weight%3A%20400%26quot%3B%26gt%3B%E4%BD%99%E9%A2%9D%3D%E7%94%A8%E6%88%B7%E6%9C%AA%E6%9D%A5%E5%B8%81%2B%E5%8F%AF%E5%85%91%E6%8D%A2%E6%9C%AA%E6%9D%A5%E5%B8%81(%E4%BA%8B%E4%B8%9A%E9%83%A8%E7%A7%AF%E5%88%86*%E6%9C%AA%E6%9D%A5%E5%B8%81%E6%B1%87%E7%8E%87)%26lt%3B%2Fspan%26gt%3B%26lt%3B%2Fdiv%26gt%3B%22%20style%3D%22text%3Bhtml%3D1%3BstrokeColor%3Dnone%3BfillColor%3Dnone%3Bspacing%3D5%3BspacingTop%3D-20%3BwhiteSpace%3Dwrap%3Boverflow%3Dhidden%3Brounded%3D0%3B%22%20vertex%3D%221%22%20parent%3D%221%22%3E%3CmxGeometry%20x%3D%22490%22%20y%3D%22230%22%20width%3D%22370%22%20height%3D%2290%22%20as%3D%22geometry%22%2F%3E%3C%2FmxCell%3E%3C%2Froot%3E%3C%2FmxGraphModel%3E&lt;/span&gt;" style="rounded=0;whiteSpace=wrap;html=1;align=left;fillColor=#f5f5f5;strokeColor=#666666;fontColor=#333333;" parent="1" vertex="1">
          <mxGeometry x="880" y="1030" width="470" height="190" as="geometry" />
        </mxCell>
        <mxCell id="8OcyjCi5qKGm8a9IeFEw-66" value="返回下单结果" style="endArrow=classic;html=1;exitX=0;exitY=0.5;exitDx=0;exitDy=0;dashed=1;" parent="1" edge="1">
          <mxGeometry width="50" height="50" relative="1" as="geometry">
            <mxPoint x="487" y="801" as="sourcePoint" />
            <mxPoint x="121" y="800" as="targetPoint" />
          </mxGeometry>
        </mxCell>
        <mxCell id="8OcyjCi5qKGm8a9IeFEw-67" value="返回下单结果" style="endArrow=classic;html=1;exitX=0;exitY=0.5;exitDx=0;exitDy=0;dashed=1;" parent="1" edge="1">
          <mxGeometry width="50" height="50" relative="1" as="geometry">
            <mxPoint x="483" y="1231" as="sourcePoint" />
            <mxPoint x="117" y="1230" as="targetPoint" />
          </mxGeometry>
        </mxCell>
      </root>
    </mxGraphModel>
  </diagram>
</mxfile>
